<mxfile host="app.diagrams.net" modified="2024-04-18T04:06:43.146Z" agent="Mozilla/5.0 (Macintosh; Intel Mac OS X 10_15_7) AppleWebKit/537.36 (KHTML, like Gecko) Chrome/122.0.0.0 Safari/537.36" version="24.2.2" etag="iV645R6lsxovkoa_1msE" type="github">
  <diagram name="Page-1" id="5L6RrH0UFsAddIA3VP3m">
    <mxGraphModel>
      <root>
        <mxCell id="0" />
        <mxCell id="1" parent="0" />
      </root>
    </mxGraphModel>
  </diagram>
</mxfile>
